<svg width="60" height="60" viewBox="0 0 60 60" fill="none" xmlns="http://www.w3.org/2000/svg">
<path d="M20 30L20 20C20 14.4772 24.4772 10 30 10V10C35.5228 10 40 14.4772 40 20L40 30" stroke="white" stroke-linecap="round"/>
<path d="M9.69435 26.1678C9.83942 24.4269 9.91196 23.5565 10.486 23.0282C11.0601 22.5 11.9336 22.5 13.6805 22.5H46.3195C48.0664 22.5 48.9399 22.5 49.514 23.0282C50.088 23.5565 50.1606 24.4269 50.3057 26.1678L52.3195 50.3339C52.404 51.3474 52.4462 51.8542 52.1491 52.1771C51.852 52.5 51.3435 52.5 50.3264 52.5H9.6736C8.65655 52.5 8.14802 52.5 7.85092 52.1771C7.55382 51.8542 7.59605 51.3474 7.68051 50.3339L9.69435 26.1678Z" stroke="white"/>
</svg>
