<svg width="1280" height="91" viewBox="0 0 1280 91" fill="none" xmlns="http://www.w3.org/2000/svg">
<rect width="1280" height="91" fill="#663EA8"/>
<path d="M482.64 39.656L476.4 56.04H473.52L482.64 33.48L491.76 56.04H488.88L482.64 39.656ZM491.6 57H473.68V60.52H471.28V54.44H494V60.52H491.6V57ZM496.558 49.64C496.558 48.1467 496.888 46.824 497.549 45.672C498.232 44.52 499.15 43.6133 500.302 42.952C501.454 42.2907 502.744 41.96 504.174 41.96C505.624 41.96 506.915 42.2907 508.046 42.952C509.198 43.6133 510.104 44.52 510.766 45.672C511.448 46.824 511.79 48.1467 511.79 49.64C511.79 51.112 511.448 52.4347 510.766 53.608C510.104 54.76 509.198 55.6667 508.046 56.328C506.915 56.9893 505.624 57.32 504.174 57.32C502.744 57.32 501.454 56.9893 500.302 56.328C499.15 55.6667 498.232 54.76 497.549 53.608C496.888 52.4347 496.558 51.112 496.558 49.64ZM499.15 49.64C499.15 50.664 499.363 51.5707 499.79 52.36C500.238 53.1493 500.835 53.7787 501.582 54.248C502.35 54.696 503.214 54.92 504.174 54.92C505.134 54.92 505.987 54.696 506.734 54.248C507.502 53.7787 508.099 53.1493 508.526 52.36C508.974 51.5707 509.198 50.664 509.198 49.64C509.198 48.616 508.974 47.7093 508.526 46.92C508.099 46.1093 507.502 45.48 506.734 45.032C505.987 44.584 505.134 44.36 504.174 44.36C503.214 44.36 502.35 44.584 501.582 45.032C500.835 45.48 500.238 46.1093 499.79 46.92C499.363 47.7093 499.15 48.616 499.15 49.64ZM516.458 49.64C516.458 50.664 516.672 51.5707 517.098 52.36C517.546 53.1493 518.144 53.7787 518.89 54.248C519.658 54.696 520.522 54.92 521.482 54.92C522.272 54.92 523.008 54.8027 523.69 54.568C524.394 54.312 525.002 53.9813 525.514 53.576C526.026 53.1493 526.389 52.7013 526.602 52.232V55.432C526.09 56.0293 525.354 56.4987 524.394 56.84C523.456 57.16 522.485 57.32 521.482 57.32C520.053 57.32 518.762 56.9893 517.61 56.328C516.458 55.6667 515.541 54.76 514.858 53.608C514.197 52.4347 513.866 51.112 513.866 49.64C513.866 48.1467 514.197 46.824 514.858 45.672C515.541 44.52 516.458 43.6133 517.61 42.952C518.762 42.2907 520.053 41.96 521.482 41.96C522.485 41.96 523.456 42.1307 524.394 42.472C525.354 42.792 526.09 43.2507 526.602 43.848V47.048C526.389 46.5573 526.026 46.1093 525.514 45.704C525.002 45.2987 524.394 44.9787 523.69 44.744C523.008 44.488 522.272 44.36 521.482 44.36C520.522 44.36 519.658 44.584 518.89 45.032C518.144 45.48 517.546 46.1093 517.098 46.92C516.672 47.7093 516.458 48.616 516.458 49.64ZM528.348 42.28H536.988V44.68H528.348V42.28ZM531.388 42.92H533.948V57H531.388V42.92ZM540.708 52.68C540.708 53.192 540.847 53.6293 541.124 53.992C541.402 54.3333 541.775 54.6 542.244 54.792C542.714 54.9627 543.236 55.048 543.812 55.048C544.666 55.048 545.423 54.92 546.084 54.664C546.746 54.408 547.258 54.0027 547.62 53.448C548.004 52.8933 548.196 52.1573 548.196 51.24L548.708 52.84C548.708 53.7787 548.452 54.5893 547.94 55.272C547.45 55.9333 546.788 56.4453 545.956 56.808C545.124 57.1493 544.196 57.32 543.172 57.32C542.255 57.32 541.412 57.1493 540.644 56.808C539.876 56.4667 539.258 55.9653 538.788 55.304C538.34 54.6213 538.116 53.7787 538.116 52.776C538.116 51.7307 538.372 50.8453 538.884 50.12C539.396 49.3947 540.122 48.84 541.06 48.456C541.999 48.0507 543.108 47.848 544.388 47.848C545.327 47.848 546.127 47.976 546.788 48.232C547.471 48.4667 548.015 48.744 548.42 49.064C548.826 49.3627 549.103 49.608 549.252 49.8V51.304C548.527 50.792 547.791 50.4187 547.044 50.184C546.298 49.928 545.455 49.8 544.516 49.8C543.663 49.8 542.948 49.9173 542.372 50.152C541.818 50.3867 541.402 50.7173 541.124 51.144C540.847 51.5707 540.708 52.0827 540.708 52.68ZM540.708 45.736L539.46 43.784C540.015 43.3787 540.762 42.9733 541.7 42.568C542.639 42.1627 543.77 41.96 545.092 41.96C546.223 41.96 547.204 42.1413 548.036 42.504C548.89 42.8453 549.551 43.3467 550.02 44.008C550.511 44.6693 550.756 45.48 550.756 46.44V57H548.196V46.44C548.196 45.6933 547.876 45.1387 547.236 44.776C546.618 44.392 545.903 44.2 545.092 44.2C544.388 44.2 543.748 44.296 543.172 44.488C542.596 44.6587 542.095 44.872 541.668 45.128C541.263 45.3627 540.943 45.5653 540.708 45.736ZM556.592 49.32H560.848C561.872 49.32 562.789 49.4267 563.6 49.64C564.41 49.8533 565.05 50.2267 565.52 50.76C565.989 51.2933 566.224 52.04 566.224 53C566.224 54.1093 565.85 55.0587 565.104 55.848C564.378 56.616 563.173 57 561.488 57H556.592V54.76H560.848C561.808 54.76 562.512 54.5573 562.96 54.152C563.429 53.7467 563.664 53.256 563.664 52.68C563.664 52.3813 563.6 52.1147 563.472 51.88C563.365 51.6453 563.194 51.432 562.96 51.24C562.746 51.048 562.458 50.9093 562.095 50.824C561.754 50.7173 561.338 50.664 560.848 50.664H556.592V49.32ZM556.592 49.96V48.456H560.528C560.912 48.456 561.253 48.4133 561.552 48.328C561.872 48.2213 562.138 48.072 562.352 47.88C562.565 47.688 562.725 47.4747 562.832 47.24C562.96 46.984 563.024 46.7173 563.024 46.44C563.024 45.864 562.8 45.4053 562.352 45.064C561.904 44.7013 561.296 44.52 560.528 44.52H556.592V42.28H560.528C561.445 42.28 562.277 42.4187 563.024 42.696C563.792 42.952 564.41 43.3787 564.88 43.976C565.349 44.552 565.584 45.32 565.584 46.28C565.584 47.112 565.349 47.8053 564.88 48.36C564.41 48.8933 563.792 49.2987 563.024 49.576C562.277 49.832 561.445 49.96 560.528 49.96H556.592ZM555.088 42.28H557.648V57H555.088V42.28ZM569.428 42.28H571.988V57H569.428V42.28ZM577.428 42.28H580.628L574.228 48.36L581.268 57H578.068L571.028 48.36L577.428 42.28ZM584.833 52.68C584.833 53.192 584.972 53.6293 585.249 53.992C585.527 54.3333 585.9 54.6 586.369 54.792C586.839 54.9627 587.361 55.048 587.937 55.048C588.791 55.048 589.548 54.92 590.209 54.664C590.871 54.408 591.383 54.0027 591.745 53.448C592.129 52.8933 592.321 52.1573 592.321 51.24L592.833 52.84C592.833 53.7787 592.577 54.5893 592.065 55.272C591.575 55.9333 590.913 56.4453 590.081 56.808C589.249 57.1493 588.321 57.32 587.297 57.32C586.38 57.32 585.537 57.1493 584.769 56.808C584.001 56.4667 583.383 55.9653 582.913 55.304C582.465 54.6213 582.241 53.7787 582.241 52.776C582.241 51.7307 582.497 50.8453 583.009 50.12C583.521 49.3947 584.247 48.84 585.185 48.456C586.124 48.0507 587.233 47.848 588.513 47.848C589.452 47.848 590.252 47.976 590.913 48.232C591.596 48.4667 592.14 48.744 592.545 49.064C592.951 49.3627 593.228 49.608 593.377 49.8V51.304C592.652 50.792 591.916 50.4187 591.169 50.184C590.423 49.928 589.58 49.8 588.641 49.8C587.788 49.8 587.073 49.9173 586.497 50.152C585.943 50.3867 585.527 50.7173 585.249 51.144C584.972 51.5707 584.833 52.0827 584.833 52.68ZM584.833 45.736L583.585 43.784C584.14 43.3787 584.887 42.9733 585.825 42.568C586.764 42.1627 587.895 41.96 589.217 41.96C590.348 41.96 591.329 42.1413 592.161 42.504C593.015 42.8453 593.676 43.3467 594.145 44.008C594.636 44.6693 594.881 45.48 594.881 46.44V57H592.321V46.44C592.321 45.6933 592.001 45.1387 591.361 44.776C590.743 44.392 590.028 44.2 589.217 44.2C588.513 44.2 587.873 44.296 587.297 44.488C586.721 44.6587 586.22 44.872 585.793 45.128C585.388 45.3627 585.068 45.5653 584.833 45.736ZM620.806 42.28V57H618.246V44.68H611.366V57H608.806V42.28H620.806ZM624.339 49.64C624.339 48.1467 624.669 46.824 625.331 45.672C626.013 44.52 626.931 43.6133 628.083 42.952C629.235 42.2907 630.525 41.96 631.955 41.96C633.405 41.96 634.696 42.2907 635.827 42.952C636.979 43.6133 637.885 44.52 638.547 45.672C639.229 46.824 639.571 48.1467 639.571 49.64C639.571 51.112 639.229 52.4347 638.547 53.608C637.885 54.76 636.979 55.6667 635.827 56.328C634.696 56.9893 633.405 57.32 631.955 57.32C630.525 57.32 629.235 56.9893 628.083 56.328C626.931 55.6667 626.013 54.76 625.331 53.608C624.669 52.4347 624.339 51.112 624.339 49.64ZM626.931 49.64C626.931 50.664 627.144 51.5707 627.571 52.36C628.019 53.1493 628.616 53.7787 629.363 54.248C630.131 54.696 630.995 54.92 631.955 54.92C632.915 54.92 633.768 54.696 634.515 54.248C635.283 53.7787 635.88 53.1493 636.307 52.36C636.755 51.5707 636.979 50.664 636.979 49.64C636.979 48.616 636.755 47.7093 636.307 46.92C635.88 46.1093 635.283 45.48 634.515 45.032C633.768 44.584 632.915 44.36 631.955 44.36C630.995 44.36 630.131 44.584 629.363 45.032C628.616 45.48 628.019 46.1093 627.571 46.92C627.144 47.7093 626.931 48.616 626.931 49.64ZM654.185 49.32H658.441C659.465 49.32 660.383 49.4267 661.193 49.64C662.004 49.8533 662.644 50.2267 663.113 50.76C663.583 51.2933 663.817 52.04 663.817 53C663.817 54.1093 663.444 55.0587 662.697 55.848C661.972 56.616 660.767 57 659.081 57H654.185V54.76H658.441C659.401 54.76 660.105 54.5573 660.553 54.152C661.023 53.7467 661.257 53.256 661.257 52.68C661.257 52.3813 661.193 52.1147 661.065 51.88C660.959 51.6453 660.788 51.432 660.553 51.24C660.34 51.048 660.052 50.9093 659.689 50.824C659.348 50.7173 658.932 50.664 658.441 50.664H654.185V49.32ZM654.185 49.96V48.456H658.121C658.505 48.456 658.847 48.4133 659.145 48.328C659.465 48.2213 659.732 48.072 659.945 47.88C660.159 47.688 660.319 47.4747 660.425 47.24C660.553 46.984 660.617 46.7173 660.617 46.44C660.617 45.864 660.393 45.4053 659.945 45.064C659.497 44.7013 658.889 44.52 658.121 44.52H654.185V42.28H658.121C659.039 42.28 659.871 42.4187 660.617 42.696C661.385 42.952 662.004 43.3787 662.473 43.976C662.943 44.552 663.177 45.32 663.177 46.28C663.177 47.112 662.943 47.8053 662.473 48.36C662.004 48.8933 661.385 49.2987 660.617 49.576C659.871 49.832 659.039 49.96 658.121 49.96H654.185ZM652.681 42.28H655.241V57H652.681V42.28ZM668.333 49.64C668.333 50.664 668.547 51.5707 668.973 52.36C669.421 53.1493 670.019 53.7787 670.765 54.248C671.533 54.696 672.397 54.92 673.357 54.92C674.147 54.92 674.883 54.8027 675.565 54.568C676.269 54.312 676.877 53.9813 677.389 53.576C677.901 53.1493 678.264 52.7013 678.477 52.232V55.432C677.965 56.0293 677.229 56.4987 676.269 56.84C675.331 57.16 674.36 57.32 673.357 57.32C671.928 57.32 670.637 56.9893 669.485 56.328C668.333 55.6667 667.416 54.76 666.733 53.608C666.072 52.4347 665.741 51.112 665.741 49.64C665.741 48.1467 666.072 46.824 666.733 45.672C667.416 44.52 668.333 43.6133 669.485 42.952C670.637 42.2907 671.928 41.96 673.357 41.96C674.36 41.96 675.331 42.1307 676.269 42.472C677.229 42.792 677.965 43.2507 678.477 43.848V47.048C678.264 46.5573 677.901 46.1093 677.389 45.704C676.877 45.2987 676.269 44.9787 675.565 44.744C674.883 44.488 674.147 44.36 673.357 44.36C672.397 44.36 671.533 44.584 670.765 45.032C670.019 45.48 669.421 46.1093 668.973 46.92C668.547 47.7093 668.333 48.616 668.333 49.64ZM682.815 50.28V48.104H692.639C692.553 47.336 692.34 46.664 691.999 46.088C691.679 45.4907 691.22 45.032 690.623 44.712C690.047 44.3707 689.332 44.2 688.479 44.2C687.625 44.2 686.847 44.3813 686.143 44.744C685.439 45.1067 684.873 45.6293 684.447 46.312C684.041 46.9733 683.839 47.7627 683.839 48.68L683.775 49.64C683.775 50.7707 683.967 51.7307 684.351 52.52C684.735 53.3093 685.279 53.9067 685.983 54.312C686.687 54.7173 687.519 54.92 688.479 54.92C689.204 54.92 689.844 54.8133 690.399 54.6C690.975 54.3653 691.487 54.056 691.935 53.672C692.383 53.2667 692.767 52.7973 693.087 52.264L695.167 53.576C694.676 54.3227 694.132 54.984 693.535 55.56C692.937 56.1147 692.212 56.552 691.359 56.872C690.505 57.1707 689.439 57.32 688.159 57.32C686.836 57.32 685.641 56.9893 684.575 56.328C683.529 55.6667 682.697 54.76 682.079 53.608C681.481 52.4347 681.183 51.112 681.183 49.64C681.183 49.3627 681.193 49.096 681.215 48.84C681.236 48.584 681.268 48.328 681.311 48.072C681.524 46.856 681.951 45.7893 682.591 44.872C683.231 43.9547 684.052 43.24 685.055 42.728C686.079 42.216 687.22 41.96 688.479 41.96C689.865 41.96 691.081 42.2693 692.127 42.888C693.172 43.5067 693.983 44.3813 694.559 45.512C695.135 46.6213 695.423 47.9547 695.423 49.512C695.423 49.64 695.423 49.768 695.423 49.896C695.423 50.024 695.412 50.152 695.391 50.28H682.815ZM712.915 57L710.515 45.32L711.955 41.16L715.795 57H712.915ZM705.235 54.792L711.955 41.16L712.275 46.28L706.195 57.992L705.235 54.792ZM706.195 57.992L700.211 46.28L700.531 41.16L707.155 54.792L706.195 57.992ZM696.691 57L700.531 41.16L701.971 45.32L699.571 57H696.691ZM729.893 42.28L720.293 64.04H717.413L721.445 54.92L715.812 42.28H718.853L723.525 53.8L722.469 53.672L727.013 42.28H729.893ZM755.884 57L753.484 45.32L754.924 41.16L758.764 57H755.884ZM748.204 54.792L754.924 41.16L755.244 46.28L749.164 57.992L748.204 54.792ZM749.164 57.992L743.18 46.28L743.5 41.16L750.124 54.792L749.164 57.992ZM739.66 57L743.5 41.16L744.94 45.32L742.54 57H739.66ZM773.658 44.84L761.498 58.12L761.658 54.44L773.818 41.16L773.658 44.84ZM764.058 42.28V54.6L761.498 58.12V42.28H764.058ZM773.818 41.16V57H771.258V44.68L773.818 41.16ZM781.175 64.04H778.615V42.28H781.175V64.04ZM793.495 49.64C793.495 51.2187 793.164 52.584 792.503 53.736C791.842 54.888 790.956 55.7733 789.847 56.392C788.759 57.0107 787.543 57.32 786.199 57.32C784.983 57.32 783.906 57.0107 782.967 56.392C782.05 55.7733 781.324 54.888 780.791 53.736C780.279 52.584 780.023 51.2187 780.023 49.64C780.023 48.04 780.279 46.6747 780.791 45.544C781.324 44.392 782.05 43.5067 782.967 42.888C783.906 42.2693 784.983 41.96 786.199 41.96C787.543 41.96 788.759 42.2693 789.847 42.888C790.956 43.5067 791.842 44.392 792.503 45.544C793.164 46.6747 793.495 48.04 793.495 49.64ZM790.903 49.64C790.903 48.5093 790.668 47.5493 790.199 46.76C789.751 45.9707 789.143 45.3733 788.375 44.968C787.628 44.5627 786.796 44.36 785.879 44.36C785.132 44.36 784.396 44.5627 783.671 44.968C782.946 45.3733 782.348 45.9707 781.879 46.76C781.41 47.5493 781.175 48.5093 781.175 49.64C781.175 50.7707 781.41 51.7307 781.879 52.52C782.348 53.3093 782.946 53.9067 783.671 54.312C784.396 54.7173 785.132 54.92 785.879 54.92C786.796 54.92 787.628 54.7173 788.375 54.312C789.143 53.9067 789.751 53.3093 790.199 52.52C790.668 51.7307 790.903 50.7707 790.903 49.64ZM808.236 42.28L798.636 64.04H795.756L799.788 54.92L794.156 42.28H797.196L801.868 53.8L800.812 53.672L805.356 42.28H808.236Z" fill="white"/>
</svg>
