<svg width="45" height="62" viewBox="0 0 45 62" fill="none" xmlns="http://www.w3.org/2000/svg">
<path d="M44.0435 7.20241V1H1V7.20241M44.0435 7.20241H1M44.0435 7.20241L33.2826 47.8H23.5978H13.5316L1 7.20241" stroke="white"/>
<path d="M6.38037 1V7.6" stroke="white"/>
<path d="M11.7609 1V7.6" stroke="white"/>
<path d="M17.1412 1V7.6" stroke="white"/>
<path d="M22.5217 1V7.6" stroke="white"/>
<path d="M27.9021 1V7.6" stroke="white"/>
<path d="M33.2826 1V7.6" stroke="white"/>
<circle cx="23.0435" cy="26" r="8.5" fill="#663EA8" stroke="white"/>
<path d="M33.2826 47.8V59C33.2826 60.1046 32.3872 61 31.2826 61H15.375C14.2704 61 13.375 60.1046 13.375 59V54.4V47.8" stroke="white"/>
<path d="M38.663 1V7.6" stroke="white"/>
</svg>
